<svg id="visual" viewBox="0 0 1920 200" width="1920" height="200" xmlns="http://www.w3.org/2000/svg" xmlns:xlink="http://www.w3.org/1999/xlink" version="1.1"><rect x="0" y="0" width="1920" height="200" fill="#282a35"></rect><path d="M0 104L35.5 101.7C71 99.3 142 94.7 213.2 93.8C284.3 93 355.7 96 426.8 100.8C498 105.7 569 112.3 640 105.8C711 99.3 782 79.7 853.2 82.7C924.3 85.7 995.7 111.3 1066.8 118.5C1138 125.7 1209 114.3 1280 109.5C1351 104.7 1422 106.3 1493.2 108.2C1564.3 110 1635.7 112 1706.8 107C1778 102 1849 90 1884.5 84L1920 78L1920 0L1884.5 0C1849 0 1778 0 1706.8 0C1635.7 0 1564.3 0 1493.2 0C1422 0 1351 0 1280 0C1209 0 1138 0 1066.8 0C995.7 0 924.3 0 853.2 0C782 0 711 0 640 0C569 0 498 0 426.8 0C355.7 0 284.3 0 213.2 0C142 0 71 0 35.5 0L0 0Z" fill="#fff4a3" stroke-linecap="round" stroke-linejoin="miter"></path></svg>