<svg id="visual" viewBox="0 0 1920 200" width="1920" height="200" xmlns="http://www.w3.org/2000/svg" xmlns:xlink="http://www.w3.org/1999/xlink" version="1.1"><rect x="0" y="0" width="1920" height="200" fill="#fff4a3"></rect><path d="M0 133L45.7 124.8C91.3 116.7 182.7 100.3 274.2 87.8C365.7 75.3 457.3 66.7 548.8 71.2C640.3 75.7 731.7 93.3 823 103.8C914.3 114.3 1005.7 117.7 1097 107C1188.3 96.3 1279.7 71.7 1371.2 66.8C1462.7 62 1554.3 77 1645.8 86C1737.3 95 1828.7 98 1874.3 99.5L1920 101L1920 0L1874.3 0C1828.7 0 1737.3 0 1645.8 0C1554.3 0 1462.7 0 1371.2 0C1279.7 0 1188.3 0 1097 0C1005.7 0 914.3 0 823 0C731.7 0 640.3 0 548.8 0C457.3 0 365.7 0 274.2 0C182.7 0 91.3 0 45.7 0L0 0Z" fill="#d9eee1" stroke-linecap="round" stroke-linejoin="miter"></path></svg>