<svg id="visual" viewBox="0 0 900 200" width="900" height="200" xmlns="http://www.w3.org/2000/svg" xmlns:xlink="http://www.w3.org/1999/xlink" version="1.1"><rect x="0" y="0" width="900" height="200" fill="#d9eee1"></rect><path d="M0 57L25 60.7C50 64.3 100 71.7 150 75.3C200 79 250 79 300 71.7C350 64.3 400 49.7 450 43.8C500 38 550 41 600 46C650 51 700 58 750 59C800 60 850 55 875 52.5L900 50L900 0L875 0C850 0 800 0 750 0C700 0 650 0 600 0C550 0 500 0 450 0C400 0 350 0 300 0C250 0 200 0 150 0C100 0 50 0 25 0L0 0Z" fill="#282a35" stroke-linecap="round" stroke-linejoin="miter"></path></svg>