<svg id="visual" viewBox="0 0 1920 200" width="1920" height="200" xmlns="http://www.w3.org/2000/svg" xmlns:xlink="http://www.w3.org/1999/xlink" version="1.1"><rect x="0" y="0" width="1920" height="200" fill="#282a35"></rect><path d="M0 136L18.8 136C37.7 136 75.3 136 113 136.7C150.7 137.3 188.3 138.7 226 140C263.7 141.3 301.3 142.7 339 142.5C376.7 142.3 414.3 140.7 452 139.2C489.7 137.7 527.3 136.3 565 135.3C602.7 134.3 640.3 133.7 678 134.7C715.7 135.7 753.3 138.3 791 138.8C828.7 139.3 866.3 137.7 903.8 137.5C941.3 137.3 978.7 138.7 1016.2 139.2C1053.7 139.7 1091.3 139.3 1129 138.8C1166.7 138.3 1204.3 137.7 1242 138C1279.7 138.3 1317.3 139.7 1355 139.5C1392.7 139.3 1430.3 137.7 1468 137.7C1505.7 137.7 1543.3 139.3 1581 139.7C1618.7 140 1656.3 139 1694 139.2C1731.7 139.3 1769.3 140.7 1807 139.8C1844.7 139 1882.3 136 1901.2 134.5L1920 133L1920 201L1901.2 201C1882.3 201 1844.7 201 1807 201C1769.3 201 1731.7 201 1694 201C1656.3 201 1618.7 201 1581 201C1543.3 201 1505.7 201 1468 201C1430.3 201 1392.7 201 1355 201C1317.3 201 1279.7 201 1242 201C1204.3 201 1166.7 201 1129 201C1091.3 201 1053.7 201 1016.2 201C978.7 201 941.3 201 903.8 201C866.3 201 828.7 201 791 201C753.3 201 715.7 201 678 201C640.3 201 602.7 201 565 201C527.3 201 489.7 201 452 201C414.3 201 376.7 201 339 201C301.3 201 263.7 201 226 201C188.3 201 150.7 201 113 201C75.3 201 37.7 201 18.8 201L0 201Z" fill="#0066FF" stroke-linecap="round" stroke-linejoin="miter"></path></svg>