<svg id="visual" viewBox="0 0 1920 150" width="1920" height="150" xmlns="http://www.w3.org/2000/svg" xmlns:xlink="http://www.w3.org/1999/xlink" version="1.1"><rect x="0" y="0" width="1920" height="150" fill="#002233"></rect><path d="M0 111L21.3 114.3C42.7 117.7 85.3 124.3 128 123C170.7 121.7 213.3 112.3 256 106.5C298.7 100.7 341.3 98.3 384 99C426.7 99.7 469.3 103.3 512 105.2C554.7 107 597.3 107 640 108.8C682.7 110.7 725.3 114.3 768 116.3C810.7 118.3 853.3 118.7 896 119.3C938.7 120 981.3 121 1024 117.8C1066.7 114.7 1109.3 107.3 1152 104C1194.7 100.7 1237.3 101.3 1280 105.5C1322.7 109.7 1365.3 117.3 1408 117.8C1450.7 118.3 1493.3 111.7 1536 109.8C1578.7 108 1621.3 111 1664 114.3C1706.7 117.7 1749.3 121.3 1792 121.5C1834.7 121.7 1877.3 118.3 1898.7 116.7L1920 115L1920 151L1898.7 151C1877.3 151 1834.7 151 1792 151C1749.3 151 1706.7 151 1664 151C1621.3 151 1578.7 151 1536 151C1493.3 151 1450.7 151 1408 151C1365.3 151 1322.7 151 1280 151C1237.3 151 1194.7 151 1152 151C1109.3 151 1066.7 151 1024 151C981.3 151 938.7 151 896 151C853.3 151 810.7 151 768 151C725.3 151 682.7 151 640 151C597.3 151 554.7 151 512 151C469.3 151 426.7 151 384 151C341.3 151 298.7 151 256 151C213.3 151 170.7 151 128 151C85.3 151 42.7 151 21.3 151L0 151Z" fill="#d36735" stroke-linecap="round" stroke-linejoin="miter"></path></svg>